<?xml version="1.0" encoding="utf-8"?>
<!-- Svg Vector Icons : http://www.onlinewebfonts.com/icon -->
<!DOCTYPE svg PUBLIC "-//W3C//DTD SVG 1.1//EN" "http://www.w3.org/Graphics/SVG/1.1/DTD/svg11.dtd">
<svg version="1.1" xmlns="http://www.w3.org/2000/svg" xmlns:xlink="http://www.w3.org/1999/xlink" x="0px" y="0px" viewBox="0 0 1000 1000" enable-background="new 0 0 1000 1000" xml:space="preserve">
<metadata> Svg Vector Icons : http://www.onlinewebfonts.com/icon </metadata>
<g><g transform="translate(0.000000,511.000000) scale(0.100000,-0.100000)"><path d="M5141.3,3281.2c-223.2-47.8-416.6-221.3-496.3-442.5c-69.8-201.3-61.8-237.2,378.7-1716.2C5249,369,5434.4-258.9,5434.4-268.9c0-12-95.7,69.8-213.3,181.4c-269.1,253.2-374.7,307-584,309c-243.2,0-448.5-117.6-554.1-316.9c-47.8-89.7-53.8-123.6-51.8-281.1c2-239.2,55.8-370.8,279.1-669.8C4950-1899.5,5841-2782.5,6303.4-3021.7c115.6-59.8,127.6-61.8,205.3-37.9c107.6,31.9,167.4,119.6,153.5,227.2c-12,99.7-29.9,119.6-231.2,249.2c-257.1,165.5-438.5,320.9-777.4,659.8c-309,310.9-711.6,777.4-986.7,1142.2c-221.3,293-263.1,474.4-127.6,546.2c121.6,61.8,155.5,39.9,637.9-416.6c667.8-627.9,623.9-592,705.6-592c133.6,0,227.2,81.7,229.2,197.3c0,37.9-243.2,879.1-540.2,1867.8c-504.3,1682.4-538.2,1806-516.3,1871.7c61.8,187.4,324.9,221.3,422.6,53.8c17.9-29.9,195.3-596,392.7-1259.8c199.3-663.8,372.7-1231.9,384.7-1263.8c27.9-71.8,125.6-131.6,211.3-131.6c93.7,0,203.3,109.6,203.3,199.3c0,35.9-71.7,305-159.5,600c-87.7,295-159.5,568.1-159.5,608c0,107.6,105.6,207.3,217.3,207.3c109.6,0,189.4-43.9,225.2-123.6c17.9-35.9,105.6-314.9,197.3-619.9c89.7-307,181.4-576.1,201.3-602c19.9-25.9,67.8-57.8,105.6-69.8c95.7-31.9,205.3,21.9,255.1,125.6l37.9,73.8L7447.6,969c-157.5,532.2-159.5,558.1-47.8,657.8c55.8,47.8,87.7,59.8,157.5,59.8c147.5,0,193.4-59.8,289-378.7C8041.6,666,8047.6,646,8099.4,598.2c75.7-69.8,221.3-67.8,291,4c85.7,83.7,85.7,151.5,4,418.6c-39.9,129.6-73.8,269.1-73.8,309c-2,145.5,141.5,261.1,273.1,217.3c137.5-45.8,189.4-137.5,344.8-621.9C9116,369,9140,287.2,9249.6-167.3c149.5-610,219.3-1104.3,207.3-1465.1c-6-183.4-2-213.3,35.9-263.1c83.7-111.6,251.2-119.6,340.9-17.9c175.4,201.3-10,1453.1-402.7,2720.9c-237.2,771.4-307,911-530.2,1062.5c-219.3,149.5-456.5,163.4-687.7,37.9l-105.7-57.8l-87.7,83.7c-121.6,117.6-253.2,175.4-424.6,187.4c-169.4,10-322.9-27.9-434.6-111.6l-77.7-57.8l-93.7,65.8c-131.6,93.7-245.2,129.6-414.6,129.6c-121.6,0-169.4-10-275.1-59.8c-89.7-41.9-131.6-53.8-137.5-35.9c-4,14-63.8,211.3-133.6,440.5c-137.5,462.5-193.3,566.1-360.8,681.7C5520.1,3275.2,5312.8,3317.1,5141.3,3281.2z"/><path d="M2155.3,3213.4c-85.7-39.9-681.7-647.8-697.7-713.6c-19.9-75.7,23.9-191.4,85.7-231.2c27.9-17.9,89.7-33.9,137.5-33.9c75.7,0,95.7,12,199.3,115.6c63.8,61.8,123.6,113.6,131.6,113.6c8,0,14-165.4,14-366.8c0-336.9,4-368.8,39.9-416.6c21.9-27.9,71.8-61.8,109.6-73.8c59.8-19.9,81.7-17.9,145.5,14c125.6,61.8,143.5,123.6,143.5,514.3v336.9l129.6-127.6c125.6-123.6,135.5-129.6,229.2-129.6c129.6,0,199.3,63.8,213.3,197.3l12,93.7l-336.9,340.9c-293,295-416.6,396.7-480.4,394.7C2223.1,3239.4,2189.2,3227.4,2155.3,3213.4z"/><path d="M469,1535.1c-374.7-374.7-400.7-412.6-348.8-532.2c14-35.9,171.4-205.3,346.8-376.7l318.9-314.9h93.7c79.7,0,103.7,10,161.5,67.8c113.6,113.6,87.7,231.2-79.7,386.7c-49.8,45.8-91.7,89.7-91.7,93.7c0,6,157.5,10,350.8,10c217.3,0,366.8,8,392.7,21.9c127.6,65.8,153.5,231.2,55.8,340.9l-57.8,65.8l-372.8,6l-372.8,6l119.6,123.6c63.8,67.8,123.6,145.5,133.6,171.4c41.9,135.6-67.8,281.1-215.3,281.1C823.8,1885.9,811.8,1875.9,469,1535.1z"/><path d="M3486.9,1846c-75.7-45.8-105.6-95.7-105.6-179.4c0-83.7,25.9-131.6,145.5-253.2l101.7-105.6h-386.7c-344.8,0-394.7-4-450.5-37.9c-119.6-73.8-137.5-247.2-35.9-342.9c49.8-45.8,59.8-47.8,448.5-53.8c217.3-4,396.7-12,396.7-17.9c0-8-53.8-67.8-119.6-137.5c-105.6-109.6-119.6-133.5-119.6-203.3c0-153.5,157.5-261.1,297-205.3c29.9,14,205.3,175.4,386.7,358.8c311,311,332.9,338.9,332.9,408.6c0,39.9-12,97.7-27.9,127.6c-43.9,81.7-612,635.9-675.7,661.8C3594.5,1893.9,3558.6,1891.9,3486.9,1846z"/><path d="M2093.5,582.3l-67.8-67.8V123.8c0-215.3-6-390.7-14-390.7c-6,0-67.8,53.8-137.5,119.6C1762.6-39.7,1740.7-27.7,1667-27.7c-67.8,0-95.7-12-151.5-67.8c-55.8-55.8-67.8-81.7-67.8-153.5c0-85.7,4-91.7,354.8-440.5c332.9-334.9,358.8-354.8,428.6-354.8c41.9,0,99.7,12,129.6,27.9c29.9,15.9,189.4,165.4,354.8,334.9c326.9,330.9,352.8,372.8,299,500.3c-45.9,111.6-189.4,165.5-297,111.6c-23.9-12-91.7-67.8-147.5-123.6l-105.6-101.7V77.9c0,418.6-15.9,488.4-117.6,540.2C2247,670,2171.3,660,2093.5,582.3z"/></g></g>
</svg>